HIERARCHY
ROOT Hips
{
	OFFSET 0.000000 0.000000 0.000000
	CHANNELS 6 Xposition Yposition Zposition Zrotation Yrotation Xrotation 
	JOINT LHipJoint
	{
		OFFSET 0.000000 0.000000 0.000000
		CHANNELS 3 Zrotation Yrotation Xrotation
		JOINT LeftUpLeg
		{
			OFFSET 1.363060 -1.794630 0.839290
			CHANNELS 3 Zrotation Yrotation Xrotation
			JOINT LeftLeg
			{
				OFFSET 2.448110 -6.726130 0.000000
				CHANNELS 3 Zrotation Yrotation Xrotation
				JOINT LeftFoot
				{
					OFFSET 2.562200 -7.039590 0.000000
					CHANNELS 3 Zrotation Yrotation Xrotation
					JOINT LeftToeBase
					{
						OFFSET 0.157640 -0.433110 2.322550
						CHANNELS 3 Zrotation Yrotation Xrotation
						End Site
						{
							OFFSET 0.000000 0.000000 0.000000
						}
					}
				}
			}
		}
	}
	JOINT RHipJoint
	{
		OFFSET 0.000000 0.000000 0.000000
		CHANNELS 3 Zrotation Yrotation Xrotation
		JOINT RightUpLeg
		{
			OFFSET -1.305520 -1.794630 0.839290
			CHANNELS 3 Zrotation Yrotation Xrotation
			JOINT RightLeg
			{
				OFFSET -2.542530 -6.985550 0.000000
				CHANNELS 3 Zrotation Yrotation Xrotation
				JOINT RightFoot
				{
					OFFSET -2.568260 -7.056230 0.000000
					CHANNELS 3 Zrotation Yrotation Xrotation
					JOINT RightToeBase
					{
						OFFSET -0.164730 -0.452590 2.363150
						CHANNELS 3 Zrotation Yrotation Xrotation
						End Site
						{
							OFFSET 0.000000 0.000000 0.000000
						}
					}
				}
			}
		}
	}
	JOINT LowerBack
	{
		OFFSET 0.000000 0.000000 0.000000
		CHANNELS 3 Zrotation Yrotation Xrotation
		JOINT Spine
		{
			OFFSET 0.028270 2.035590 -0.193380
			CHANNELS 3 Zrotation Yrotation Xrotation
			JOINT Spine1
			{
				OFFSET 0.056720 2.048850 -0.042750
				CHANNELS 3 Zrotation Yrotation Xrotation
				JOINT Neck
				{
					OFFSET 0.000000 0.000000 0.000000
					CHANNELS 3 Zrotation Yrotation Xrotation
					JOINT Neck1
					{
						OFFSET -0.054170 1.746240 0.172020
						CHANNELS 3 Zrotation Yrotation Xrotation
						JOINT Head
						{
							OFFSET 0.104070 1.761360 -0.123970
							CHANNELS 3 Zrotation Yrotation Xrotation
							End Site
							{
								OFFSET 0.000000 0.000000 0.000000
							}
						}
					}
				}
				JOINT LeftShoulder
				{
					OFFSET 0.000000 0.000000 0.000000
					CHANNELS 3 Zrotation Yrotation Xrotation
					JOINT LeftArm
					{
						OFFSET 3.362410 1.200890 -0.311210
						CHANNELS 3 Zrotation Yrotation Xrotation
						JOINT LeftForeArm
						{
							OFFSET 4.983000 -0.000000 -0.000000
							CHANNELS 3 Zrotation Yrotation Xrotation
							JOINT LeftHand
							{
								OFFSET 3.483560 -0.000000 -0.000000
								CHANNELS 3 Zrotation Yrotation Xrotation
								JOINT LeftFingerBase
								{
									OFFSET 0.000000 0.000000 0.000000
									CHANNELS 3 Zrotation Yrotation Xrotation
									JOINT LeftHandIndex1
									{
										OFFSET 0.715260 -0.000000 -0.000000
										CHANNELS 3 Zrotation Yrotation Xrotation
										End Site
										{
											OFFSET 0.000000 0.000000 0.000000
										}
									}
								}
								JOINT LThumb
								{
									OFFSET 0.000000 0.000000 0.000000
									CHANNELS 3 Zrotation Yrotation Xrotation
									End Site
									{
										OFFSET 0.000000 0.000000 0.000000
									}
								}
							}
						}
					}
				}
				JOINT RightShoulder
				{
					OFFSET 0.000000 0.000000 0.000000
					CHANNELS 3 Zrotation Yrotation Xrotation
					JOINT RightArm
					{
						OFFSET -3.136600 1.374050 -0.404650
						CHANNELS 3 Zrotation Yrotation Xrotation
						JOINT RightForeArm
						{
							OFFSET -5.241900 -0.000000 -0.000000
							CHANNELS 3 Zrotation Yrotation Xrotation
							JOINT RightHand
							{
								OFFSET -3.444170 -0.000000 -0.000000
								CHANNELS 3 Zrotation Yrotation Xrotation
								JOINT RightFingerBase
								{
									OFFSET 0.000000 0.000000 0.000000
									CHANNELS 3 Zrotation Yrotation Xrotation
									JOINT RightHandIndex1
									{
										OFFSET -0.622530 -0.000000 -0.000000
										CHANNELS 3 Zrotation Yrotation Xrotation
										End Site
										{
											OFFSET 0.000000 0.000000 0.000000
										}
									}
								}
								JOINT RThumb
								{
									OFFSET 0.000000 0.000000 0.000000
									CHANNELS 3 Zrotation Yrotation Xrotation
									End Site
									{
										OFFSET 0.000000 0.000000 0.000000
									}
								}
							}
						}
					}
				}
			}
		}
	}
}
MOTION
Frames: 12
Frame Time: 0.008333
0.152712 18.157570 -3.847233 -0.586167 14.690626 4.221161 -5.317936 -1.866522 0.981366 -8.564360 -0.566318 -11.119227 9.317023 17.831915 57.184807 -1.643686 10.981654 13.558140 0.465000 -4.374000 -12.131300 4.809414 2.150379 -0.501542 15.816873 4.463578 -19.141920 -2.211888 -10.952484 29.507913 6.484911 -24.515533 -1.674301 -0.003400 0.376400 -1.034300 1.912453 -2.495538 8.664336 4.238566 -2.860014 -2.160366 3.969156 -1.481421 -4.578110 0.355043 -4.438457 -16.476565 5.175299 -6.382269 12.159370 -1.756400 -2.461300 8.897800 3.176777 -1.084295 0.103294 -78.760644 12.720761 48.966171 58.590554 -55.772819 -31.572730 0.016396 0.113096 -2.090761 0.614428 -4.692949 -0.049800 -7.125000 0.000000 0.000000 -19.286200 25.099900 9.823900 -2.691210 1.872613 0.162572 85.258173 -7.873053 -7.072438 -16.172049 25.739785 -3.737042 0.194359 -0.391150 -7.713521 -9.561183 -5.252727 0.824900 7.125000 0.000000 0.000000 13.956000 -34.604200 3.652500 
0.158817 18.171581 -3.655492 -0.730435 14.355454 4.063177 -5.306556 -1.929740 0.865985 -8.469485 -0.387507 -12.340484 9.366013 17.855502 57.412533 -1.710567 10.716409 12.294905 0.517700 -4.611600 -12.804000 4.829933 2.139479 -0.404865 16.253311 4.265063 -18.312141 -2.138077 -10.863865 29.229383 6.460728 -24.428572 -2.035917 -0.004500 0.433800 -1.192000 2.027366 -2.446740 8.645854 4.214306 -2.792431 -2.108592 3.843890 -1.445076 -4.508264 0.256909 -4.489153 -16.376694 5.254986 -6.430537 12.154131 -1.712500 -2.483100 8.881700 3.168123 -1.076827 0.095009 -78.362699 12.431014 49.036141 62.052847 -56.679399 -34.411912 0.042366 0.144442 -2.058952 3.150024 -3.999641 -0.224400 -7.125000 0.000000 0.000000 -17.577100 25.748800 8.583400 -2.700727 1.889660 0.171616 85.587702 -8.334173 -6.145631 -15.165352 24.470674 -3.334016 0.190373 -0.381836 -6.826433 -9.183188 -5.554048 0.843800 7.125000 0.000000 0.000000 14.316000 -34.894400 3.647600 
0.165022 18.179386 -3.465752 -0.915099 14.036209 3.902010 -5.292343 -1.992234 0.747137 -8.332202 -0.256032 -13.559196 9.395868 17.864606 57.556163 -1.781820 10.541983 11.098377 0.557000 -4.780400 -13.283400 4.844593 2.130995 -0.311420 16.738974 4.033756 -17.538883 -2.076038 -10.791989 29.010300 6.439698 -24.350662 -2.482704 -0.005200 0.466200 -1.281000 2.183849 -2.403347 8.622535 4.198293 -2.728254 -2.044113 3.706805 -1.411795 -4.416005 0.186410 -4.523723 -16.319075 5.304566 -6.462419 12.144687 -1.683700 -2.498900 8.870300 3.161291 -1.071772 0.086932 -77.973683 12.083350 49.028433 65.468221 -57.428617 -37.250918 0.070209 0.174477 -2.050362 5.808566 -3.513801 -0.369900 -7.125000 0.000000 0.000000 -15.714500 26.199300 7.427800 -2.709371 1.904525 0.180314 85.917445 -8.774627 -5.166689 -14.247117 23.291435 -2.983702 0.184466 -0.372133 -5.637156 -8.740956 -5.697374 0.828000 7.125000 0.000000 0.000000 14.700600 -35.026600 3.702300 
0.171026 18.181188 -3.278014 -1.126140 13.738620 3.743680 -5.275563 -2.054918 0.623973 -8.162975 -0.174336 -14.782301 9.406130 17.859511 57.619671 -1.853051 10.433453 9.985028 0.584600 -4.895400 -13.610500 4.853680 2.125546 -0.220519 17.262546 3.753528 -16.828154 -2.025867 -10.736477 28.848750 6.422729 -24.287156 -3.006210 -0.005500 0.480300 -1.319800 2.369520 -2.367532 8.614261 4.188464 -2.670188 -1.978480 3.565028 -1.381918 -4.328440 0.109793 -4.552658 -16.274758 5.353592 -6.485338 12.120679 -1.653500 -2.512200 8.856600 3.155382 -1.068314 0.078973 -77.599857 11.703566 48.939845 68.811035 -58.032222 -40.063505 0.097707 0.201104 -2.054056 8.419360 -3.217852 -0.499300 -7.125000 0.000000 0.000000 -13.833700 26.464200 6.395400 -2.716981 1.918903 0.189135 86.246815 -9.227347 -4.103766 -13.438477 22.238006 -2.688215 0.177261 -0.361703 -4.231006 -8.212740 -5.690414 0.779600 7.125000 0.000000 0.000000 15.126600 -35.008300 3.823000 
0.176730 18.177285 -3.092377 -1.368064 13.450049 3.583685 -5.255360 -2.116904 0.497710 -7.954335 -0.121521 -16.007764 9.397103 17.840713 57.605589 -1.921650 10.375198 8.971606 0.601800 -4.966000 -13.811700 4.858350 2.121797 -0.133454 17.831362 3.477731 -16.149735 -1.986849 -10.696310 28.740430 6.420800 -24.275010 -3.628414 -0.005400 0.476200 -1.308600 2.581717 -2.340495 8.630157 4.186733 -2.619303 -1.906769 3.421970 -1.356451 -4.242311 0.067644 -4.561186 -16.266706 5.377053 -6.486285 12.127162 -1.637200 -2.513200 8.859800 3.150299 -1.064973 0.071007 -77.239173 11.291319 48.754226 72.075453 -58.505979 -42.840316 0.123914 0.223256 -2.105185 10.906873 -3.106707 -0.633500 -7.125000 0.000000 0.000000 -12.003600 26.544700 5.487300 -2.723020 1.933793 0.197982 86.577312 -9.677382 -2.937196 -12.752388 21.335897 -2.446906 0.170042 -0.350668 -2.713531 -7.610440 -5.596692 0.712500 7.125000 0.000000 0.000000 15.594200 -34.902400 3.990300 
0.182034 18.167778 -2.909142 -1.618315 13.169119 3.431998 -5.232875 -2.179443 0.367615 -7.729430 -0.099817 -17.237637 9.367191 17.808045 57.512766 -1.990441 10.363223 8.035559 0.611800 -5.006200 -13.926200 4.859118 2.119690 -0.049884 18.420043 3.204656 -15.502848 -1.956863 -10.668279 28.675663 6.430784 -24.306307 -4.343603 -0.005000 0.457000 -1.255700 2.799155 -2.319734 8.664060 4.189629 -2.575568 -1.827211 3.284444 -1.334507 -4.151496 0.029082 -4.557909 -16.299161 5.394790 -6.471263 12.118425 -1.623000 -2.508400 8.864800 3.145646 -1.062998 0.063599 -76.892867 10.841227 48.477295 75.242598 -58.863083 -45.562558 0.148548 0.239980 -2.220860 13.229408 -3.203465 -0.799700 -7.125000 0.000000 0.000000 -10.267100 26.413100 4.699100 -2.727516 1.947678 0.206894 86.907023 -10.124570 -1.666540 -12.196697 20.602796 -2.256915 0.163399 -0.339067 -1.183273 -6.934686 -5.427768 0.631300 7.125000 0.000000 0.000000 16.104100 -34.721000 4.203500 
0.187338 18.152967 -2.727608 -1.860867 12.883598 3.294819 -5.209345 -2.242502 0.235016 -7.506509 -0.101919 -18.465067 9.312330 17.760216 57.334110 -2.056844 10.378733 7.170716 0.623600 -5.053200 -14.060400 4.857585 2.117672 0.029674 19.006350 2.975752 -14.863231 -1.934283 -10.649114 28.642042 6.458552 -24.403666 -5.138428 -0.004500 0.433600 -1.191300 3.008989 -2.300266 8.715833 4.192291 -2.533758 -1.744724 3.151824 -1.312804 -4.064095 0.001785 -4.541189 -16.343214 5.400612 -6.441508 12.083801 -1.614000 -2.499300 8.861900 3.141372 -1.063451 0.056990 -76.558495 10.361871 48.115333 78.363418 -59.121997 -48.268556 0.169056 0.251456 -2.568612 15.262061 -3.427790 -0.991900 -7.125000 0.000000 0.000000 -8.735500 26.148000 4.036000 -2.730368 1.959177 0.215613 87.233485 -10.561723 -0.304626 -11.760604 20.028443 -2.111009 0.158368 -0.327686 0.274805 -6.239561 -5.262546 0.552500 7.125000 0.000000 0.000000 16.627200 -34.542600 4.425300 
0.192342 18.133653 -2.547976 -2.100708 12.589638 3.172249 -5.184265 -2.304884 0.101119 -7.275728 -0.121043 -19.687315 9.229149 17.695733 57.060842 -2.116991 10.400050 6.369783 0.638100 -5.110700 -14.224700 4.855050 2.115105 0.105013 19.592662 2.821641 -14.211975 -1.915608 -10.634092 28.623882 6.504567 -24.571350 -6.002566 -0.003900 0.403200 -1.107800 3.213730 -2.281116 8.791367 4.192822 -2.490911 -1.672175 3.022101 -1.290395 -4.001553 -0.060405 -4.538947 -16.385400 5.434772 -6.422303 12.064203 -1.589800 -2.493300 8.866300 3.135989 -1.061207 0.050095 -76.223146 9.903502 47.687120 81.449774 -59.292202 -50.968789 0.187150 0.257511 -3.133720 17.087899 -3.866605 -1.252400 -7.125000 0.000000 0.000000 -7.351500 25.657200 3.470500 -2.732809 1.974155 0.224986 87.564789 -11.012432 1.111521 -11.431472 19.599392 -2.001930 0.154856 -0.316908 1.602762 -5.549684 -5.099806 0.478100 7.125000 0.000000 0.000000 17.143800 -34.366600 4.650200 
0.197445 18.110536 -2.369145 -2.310740 12.271965 3.074596 -5.160066 -2.368060 -0.033641 -7.066693 -0.152448 -20.895093 9.111540 17.611462 56.677718 -2.169281 10.419175 5.640886 0.653000 -5.168800 -14.390600 4.852312 2.110667 0.176648 20.142107 2.748446 -13.537646 -1.896622 -10.617322 28.601210 6.558565 -24.778223 -6.904878 -0.003300 0.369100 -1.014300 3.386320 -2.251949 8.858579 4.184613 -2.440161 -1.594420 2.894633 -1.262320 -3.926089 -0.074665 -4.510415 -16.424051 5.425973 -6.381240 11.994186 -1.587600 -2.482400 8.848400 3.131904 -1.064707 0.045088 -75.884141 9.426038 47.184239 84.434248 -59.380878 -53.602792 0.202941 0.258204 -3.817221 18.713594 -4.504494 -1.592800 -7.125000 0.000000 0.000000 -6.120300 24.951600 2.983400 -2.733985 1.982546 0.233163 87.901395 -11.422977 2.496724 -11.162708 19.251112 -1.913835 0.151556 -0.307154 2.859736 -4.931790 -4.906820 0.410500 7.125000 0.000000 0.000000 17.594300 -34.164700 4.873100 
0.202849 18.085317 -2.191213 -2.496517 11.933654 3.005868 -5.137250 -2.431545 -0.168973 -6.874185 -0.202062 -22.086296 8.954786 17.504444 56.169684 -2.212572 10.427449 4.983155 0.673500 -5.247600 -14.616200 4.850628 2.104343 0.245953 20.649717 2.749807 -12.835451 -1.872481 -10.591231 28.549060 6.612047 -24.996655 -7.799420 -0.002700 0.336000 -0.923200 3.538655 -2.217298 8.925256 4.165115 -2.384851 -1.528704 2.762101 -1.230849 -3.866291 -0.077942 -4.466262 -16.431950 5.408320 -6.323284 11.908342 -1.588200 -2.465200 8.818500 3.128070 -1.070073 0.041044 -75.537993 8.978907 46.616347 87.331248 -59.399271 -56.179081 0.215891 0.253850 -4.654131 20.100074 -5.321145 -2.012200 -7.125000 0.000000 0.000000 -5.079200 24.051600 2.577900 -2.734607 1.989291 0.240936 88.246717 -11.828039 3.866966 -10.952312 18.982400 -1.844858 0.148492 -0.298703 3.998697 -4.399450 -4.693002 0.351500 7.125000 0.000000 0.000000 17.970800 -33.946200 5.086600 
0.208754 18.059398 -2.013683 -2.652878 11.569509 2.968437 -5.117233 -2.494904 -0.303887 -6.702419 -0.266887 -23.247261 8.754594 17.371097 55.519669 -2.251888 10.444164 4.414405 0.692600 -5.320100 -14.823800 4.851113 2.094948 0.313378 21.102240 2.844371 -12.082582 -1.837254 -10.547410 28.439520 6.658173 -25.203666 -8.672300 -0.002100 0.297700 -0.817900 3.665070 -2.174255 8.972929 4.135472 -2.323582 -1.463706 2.627640 -1.195109 -3.796428 -0.060957 -4.405910 -16.429539 5.375040 -6.249431 11.802860 -1.596200 -2.442500 8.778400 3.124798 -1.077288 0.038338 -75.191136 8.541212 45.977903 90.103703 -59.358374 -58.660962 0.226122 0.245528 -5.538850 21.284664 -6.240078 -2.489100 -7.125000 0.000000 0.000000 -4.204700 23.035500 2.229900 -2.734945 1.993149 0.247979 88.591866 -12.198424 5.200062 -10.777863 18.761914 -1.787827 0.145067 -0.291539 5.002814 -3.974397 -4.444131 0.301500 7.125000 0.000000 0.000000 18.254100 -33.698500 5.289600 
0.215459 18.034780 -1.836452 -2.782471 11.189962 2.968776 -5.101268 -2.558556 -0.438796 -6.548314 -0.358469 -24.372082 8.507574 17.207505 54.712506 -2.291116 10.482442 3.954450 0.708200 -5.378600 -14.991500 4.854508 2.083068 0.381171 21.494456 2.984457 -11.294158 -1.786259 -10.477472 28.243598 6.687924 -25.365341 -9.455221 -0.001700 0.266300 -0.731700 3.775440 -2.129601 9.000194 4.095233 -2.264301 -1.409153 2.486567 -1.159019 -3.729473 -0.030126 -4.323432 -16.408314 5.328380 -6.151156 11.662042 -1.608700 -2.411700 8.721200 3.122350 -1.087421 0.037087 -74.851040 8.124000 45.265934 92.719838 -59.269678 -61.013702 0.232728 0.234383 -6.432741 22.195741 -7.158642 -2.968000 -7.125000 0.000000 0.000000 -3.547700 22.019200 1.962500 -2.734854 1.993478 0.254171 88.930701 -12.544176 6.517721 -10.635376 18.584417 -1.741059 0.141327 -0.285576 5.834570 -3.650229 -4.168434 0.260000 7.125000 0.000000 0.000000 18.451800 -33.429000 5.479400 
